HIERARCHY
ROOT Hips
{
    OFFSET 0.000000 0.000000 0.000000
    CHANNELS 6 Xposition Yposition Zposition Zrotation Xrotation Yrotation
    JOINT Spine
    {
        OFFSET -0.000000 7.236184 0.000000
        CHANNELS 3 Zrotation Xrotation Yrotation
        JOINT Spine1
        {
            OFFSET -0.000000 20.420147 0.000000
            CHANNELS 3 Zrotation Xrotation Yrotation
            JOINT Neck
            {
                OFFSET -0.000000 20.336288 1.848754
                CHANNELS 3 Zrotation Xrotation Yrotation
                JOINT Head
                {
                    OFFSET -0.000000 12.354461 -1.764923
                    CHANNELS 3 Zrotation Xrotation Yrotation
                    End Site
                    {
                        OFFSET -0.000000 22.061537 0.000000
                    }
                }
            }
            JOINT LeftShoulder
            {
                OFFSET 3.573296 18.396038 -0.314103
                CHANNELS 3 Zrotation Xrotation Yrotation
                JOINT LeftArm
                {
                    OFFSET 10.880760 0.000000 0.000000
                    CHANNELS 3 Zrotation Xrotation Yrotation
                    JOINT LeftForeArm
                    {
                        OFFSET 27.185530 0.000000 0.000000
                        CHANNELS 3 Zrotation Xrotation Yrotation
                        JOINT LeftHand
                        {
                            OFFSET 27.825975 0.000000 0.000000
                            CHANNELS 3 Zrotation Xrotation Yrotation
                            End Site
                            {
                                OFFSET 13.236923 0.000000 0.000000
                            }
                        }
                    }
                }
            }
            JOINT RightShoulder
            {
                OFFSET -3.474926 18.396038 -0.314103
                CHANNELS 3 Zrotation Xrotation Yrotation
                JOINT RightArm
                {
                    OFFSET -10.880760 0.000000 0.000000
                    CHANNELS 3 Zrotation Xrotation Yrotation
                    JOINT RightForeArm
                    {
                        OFFSET -27.185530 0.000000 0.000000
                        CHANNELS 3 Zrotation Xrotation Yrotation
                        JOINT RightHand
                        {
                            OFFSET -27.825975 0.000000 0.000000
                            CHANNELS 3 Zrotation Xrotation Yrotation
                            End Site
                            {
                                OFFSET -13.236923 0.000000 0.000000
                            }
                        }
                    }
                }
            }
        }
    }
    JOINT LeftUpLeg
    {
        OFFSET 8.824615 0.000000 0.000000
        CHANNELS 3 Zrotation Xrotation Yrotation
        JOINT LeftLeg
        {
            OFFSET -0.000000 -35.111282 0.000000
            CHANNELS 3 Zrotation Xrotation Yrotation
            JOINT LeftFoot
            {
                OFFSET -0.000000 -42.324711 0.000000
                CHANNELS 3 Zrotation Xrotation Yrotation
                JOINT LeftToeBase
                {
                    OFFSET -0.000000 -5.735999 13.236923
                    CHANNELS 3 Zrotation Xrotation Yrotation
                    End Site
                    {
                        OFFSET -0.000000 0.000000 3.529846
                    }
                }
            }
        }
    }
    JOINT RightUpLeg
    {
        OFFSET -8.824615 0.000000 0.000000
        CHANNELS 3 Zrotation Xrotation Yrotation
        JOINT RightLeg
        {
            OFFSET -0.000000 -35.111282 0.000000
            CHANNELS 3 Zrotation Xrotation Yrotation
            JOINT RightFoot
            {
                OFFSET -0.000000 -42.324711 0.000000
                CHANNELS 3 Zrotation Xrotation Yrotation
                JOINT RightToeBase
                {
                    OFFSET -0.000000 -5.735999 13.236923
                    CHANNELS 3 Zrotation Xrotation Yrotation
                    End Site
                    {
                        OFFSET -0.000000 0.000000 3.529846
                    }
                }
            }
        }
    }
}
MOTION
Frames:    5
Frame Time:    0.008333
8.785598    77.238007    110.206711    2.465070    -17.597443    -173.388718    -2.302828    -4.213903    0.753622    4.399384    6.249349    0.598175    4.129075    -2.278734    -1.313218    17.949512    -41.142483    6.820980    11.104609    -1.651379    -21.323757    -10.459155    2.994695    -66.451698    16.498552    -3.400708    -15.860666    22.626343    -2.416208    -6.634199    -9.501416    1.537212    12.763395    20.093006    1.326371    52.773911    -23.777819    -5.880558    28.666473    -11.969260    -0.191830    4.490905    21.766260    -38.631367    3.832315    4.163563    34.153084    5.566342    -22.592678    -6.432374    -22.560242    1.513197    -0.593433    -1.679108    -24.699970    -30.282583    -9.475901    3.126699    33.431877    3.165752    17.607567    -11.030582    -11.615632    -0.128370    -3.217240    0.139477    
8.019535    77.557114    110.019073    2.878411    -17.409624    -173.269073    -2.376945    -4.414311    0.733497    4.856913    6.138865    0.564522    4.362157    -1.804155    -1.765524    18.795856    -40.973335    6.725814    11.111707    -1.351816    -21.286777    -10.108152    3.952741    -66.295197    16.993145    -3.335545    -16.488590    23.966511    -2.348920    -7.024525    -8.920229    2.223920    12.337210    19.882116    2.158361    51.701321    -24.596634    -5.961869    29.901394    -12.215863    0.213151    4.598700    21.544662    -38.288559    3.721163    4.108263    34.019932    5.376137    -22.417555    -6.728138    -22.535334    1.659544    -0.482045    -1.841122    -24.530497    -28.971245    -8.970203    3.206225    31.721701    2.715250    18.084736    -9.950811    -11.193585    -0.020235    -3.573974    0.022001    
7.264306    77.896416    109.819710    3.277069    -17.222107    -173.176514    -2.440335    -4.623280    0.718673    5.296404    6.006550    0.539199    4.605748    -1.304979    -2.206360    19.594168    -40.762825    6.610805    11.106389    -1.041345    -21.223717    -9.800642    4.992379    -66.064484    17.470984    -3.224148    -17.133928    25.285891    -2.229271    -7.375828    -8.333917    2.911191    11.885153    19.727291    3.045308    50.567005    -25.393311    -6.049281    31.165665    -12.495341    0.636279    4.679196    21.309273    -37.870934    3.541315    4.017670    33.798096    5.258512    -22.201605    -6.996173    -22.473461    1.786220    -0.384168    -1.981302    -24.365116    -27.647757    -8.446218    3.275837    30.016899    2.279114    18.520443    -8.818620    -10.741202    0.088183    -3.965263    -0.095912    
6.509432    78.256981    109.606621    3.667104    -17.033339    -173.109665    -2.491858    -4.843609    0.709455    5.720178    5.850834    0.522343    4.866420    -0.774156    -2.640348    20.350845    -40.513065    6.473557    11.089153    -0.717766    -21.131924    -9.540641    6.120433    -65.760010    17.927418    -3.070952    -17.805462    26.577883    -2.059914    -7.692807    -7.737832    3.604346    11.397978    19.639198    3.987389    49.358509    -26.161444    -6.144258    32.472301    -12.800074    1.077806    4.735775    21.059807    -37.378242    3.310967    3.904989    33.489891    5.190307    -21.948030    -7.245256    -22.376560    1.895971    -0.294195    -2.102691    -24.204041    -26.307791    -7.894258    3.335394    28.329153    1.859882    18.909962    -7.641640    -10.260237    0.194275    -4.386701    -0.211437    
5.764495    78.631332    109.382942    4.043796    -16.845987    -173.068405    -2.529526    -5.072403    0.705857    6.119916    5.674632    0.514395    5.144189    -0.218284    -3.060666    21.050827    -40.231213    6.314662    11.060287    -0.385574    -21.010019    -9.336478    7.316866    -65.387543    18.345999    -2.885480    -18.494062    27.803127    -1.850021    -7.973423    -7.142064    4.290868    10.878052    19.628374    4.961885    48.092442    -26.872673    -6.244455    33.802345    -13.115306    1.527014    4.770110    20.800980    -36.821484    3.048325    3.783539    33.104305    5.155706    -21.664709    -7.475442    -22.248871    1.987818    -0.210642    -2.204216    -24.051460    -24.981014    -7.317629    3.384106    26.718790    1.470117    19.236259    -6.462292    -9.767182    0.292504    -4.821005    -0.318552    
